<?xml version="1.0" standalone="no"?>
<!DOCTYPE svg PUBLIC "-//W3C//DTD SVG 20010904//EN"
 "http://www.w3.org/TR/2001/REC-SVG-20010904/DTD/svg10.dtd">
<svg version="1.0" xmlns="http://www.w3.org/2000/svg"
 width="512.000000pt" height="512.000000pt" viewBox="0 0 512.000000 512.000000"
 preserveAspectRatio="xMidYMid meet">
<metadata>
Created by potrace 1.14, written by Peter Selinger 2001-2017
</metadata>
<g transform="translate(0.000000,512.000000) scale(0.100000,-0.100000)"
fill="#000000" stroke="none">
<path d="M3980 5110 c-19 -4 -51 -11 -70 -14 -88 -17 -283 -93 -395 -153 -261
-141 -537 -382 -751 -658 -82 -105 -202 -282 -231 -340 -20 -40 -20 -41 -2
-150 11 -60 21 -128 24 -150 3 -22 8 -48 11 -57 5 -16 -4 -18 -91 -18 -144 0
-147 -3 -213 -175 -77 -202 -114 -357 -136 -570 -5 -45 11 -80 56 -123 l40
-39 -29 -12 c-60 -24 -71 -72 -43 -184 49 -200 180 -367 330 -421 35 -13 48
-22 45 -34 -3 -17 -8 -66 -20 -192 -4 -36 -8 -76 -10 -90 -2 -14 -6 -54 -10
-90 -3 -36 -8 -81 -11 -102 -3 -20 -7 -68 -9 -107 -4 -66 -2 -72 25 -101 22
-23 36 -30 67 -30 71 0 97 33 108 137 3 32 8 76 10 98 2 22 9 87 15 145 6 58
13 121 15 140 3 19 7 60 10 90 10 97 9 94 46 95 19 1 59 5 89 9 30 4 57 7 60
6 12 -1 149 49 190 70 87 44 192 137 267 235 78 102 176 323 223 503 32 122
80 328 84 361 2 18 -5 43 -17 63 -13 22 -16 33 -7 36 39 13 63 52 87 137 13
50 26 100 29 113 2 12 19 79 38 150 45 172 49 185 51 197 6 23 147 554 160
600 8 28 32 115 54 195 101 367 101 365 57 408 -26 27 -83 35 -146 22z m-221
-287 c-33 -42 -94 -118 -99 -123 -4 -3 -48 -61 -99 -130 -51 -69 -98 -132
-104 -140 -7 -8 -36 -51 -64 -95 -29 -44 -86 -116 -128 -160 -41 -44 -101
-114 -132 -155 -32 -41 -63 -81 -70 -88 -7 -7 -51 -71 -99 -142 -95 -143 -91
-125 -64 -285 9 -58 8 -64 -33 -167 l-42 -108 -83 0 -83 0 -20 -47 c-55 -129
-139 -424 -139 -490 0 -26 -6 -21 -86 57 l-85 85 6 62 c5 51 24 137 59 273 2
8 12 35 21 60 9 25 23 66 31 93 l15 47 119 0 c144 0 129 -2 162 22 33 23 47
69 37 123 -7 38 -18 106 -24 150 -4 25 -24 151 -30 184 -3 18 14 52 61 124
192 291 433 541 679 705 61 40 288 162 302 162 3 0 -1 -8 -8 -17z m-1188
-2350 c27 -31 26 -29 14 -93 -5 -25 -8 -48 -7 -52 1 -5 -18 -8 -43 -8 l-44 0
6 -32 6 -33 -41 39 c-34 32 -102 139 -102 160 0 3 27 6 60 6 58 0 110 15 110
32 0 16 17 8 41 -19z"/>
<path d="M1680 1543 c-36 -7 -78 -15 -95 -18 -16 -3 -107 -35 -201 -70 -297
-111 -466 -155 -696 -180 -63 -7 -97 -23 -114 -57 -16 -30 -11 -81 9 -109 16
-22 78 -41 113 -35 16 3 52 8 79 11 217 26 440 87 729 201 150 59 304 81 426
61 144 -24 303 -135 428 -297 24 -31 92 -149 92 -158 0 -4 -28 20 -63 53 -88
85 -218 168 -302 194 -22 7 -47 15 -55 19 -45 18 -148 30 -245 28 -130 -3
-224 -26 -441 -110 -160 -61 -268 -95 -399 -124 -80 -18 -123 -25 -285 -48
-63 -8 -90 -25 -130 -81 -18 -26 -37 -50 -40 -53 -12 -10 -469 -609 -479 -629
-6 -11 -11 -27 -11 -36 0 -31 31 -82 56 -94 18 -8 672 -11 2505 -11 2323 0
2483 1 2510 17 32 19 54 71 45 107 -4 17 -292 403 -373 501 -5 6 -51 65 -102
132 -95 124 -114 139 -186 148 -260 32 -407 68 -654 162 -193 73 -237 87 -336
109 -61 13 -255 11 -318 -3 -163 -38 -305 -118 -429 -245 -27 -26 -48 -46 -48
-43 0 20 70 138 109 185 11 14 36 42 53 64 103 121 283 213 430 220 136 6 187
-6 478 -114 292 -108 434 -137 474 -97 43 43 46 95 9 137 -22 23 -48 35 -128
56 -113 29 -235 68 -281 89 -63 29 -251 93 -324 110 -304 69 -607 -38 -823
-290 -76 -89 -97 -117 -97 -127 0 -20 -17 -4 -45 40 -40 64 -187 209 -257 255
-182 120 -399 168 -588 130z m1748 -562 c40 -2 23 -18 -36 -35 -157 -44 -331
-180 -450 -352 -27 -38 -27 -42 -29 -209 -1 -93 -2 -173 -2 -177 -1 -5 -57 -8
-126 -8 l-125 0 0 153 0 152 44 77 c115 202 280 342 458 387 66 17 125 20 266
12z m-2425 -233 c-6 -7 -99 -129 -207 -270 -109 -142 -201 -258 -204 -259 -4
0 -16 -2 -27 -4 -31 -6 -255 -13 -255 -9 0 3 26 38 58 78 31 41 117 153 191
249 l135 175 55 7 c83 10 224 34 229 40 3 3 12 5 20 5 10 0 12 -4 5 -12z m870
-452 c32 -13 71 -45 96 -78 13 -17 0 -18 -235 -18 -152 0 -243 4 -234 10 9 4
60 25 115 46 147 55 202 64 258 40z m1563 -16 c33 -11 93 -33 134 -50 l75 -29
-254 -1 c-280 0 -266 -4 -202 59 57 55 132 62 247 21z"/>
<path d="M4389 1241 c-38 -39 -40 -96 -4 -135 13 -14 30 -27 37 -27 7 -1 25
-3 40 -5 34 -4 83 35 92 72 24 96 -95 165 -165 95z"/>
</g>
</svg>
